<?xml version="1.0" encoding="iso-8859-1"?>
<!-- Generator: Adobe Illustrator 23.1.0, SVG Export Plug-In . SVG Version: 6.00 Build 0)  -->
<svg version="1.1" id="Capa_1" xmlns="http://www.w3.org/2000/svg" xmlns:xlink="http://www.w3.org/1999/xlink" x="0px" y="0px"
	 viewBox="0 0 512.016 512.016" style="enable-background:new 0 0 512.016 512.016;" xml:space="preserve">
<g>
	<path style="fill:#4E5660;" d="M417.392,181.981h-68.828v22.06c-13.236,32.649-43.927,65.299-92.556,65.299
		s-79.32-32.649-92.556-65.299v-22.06H94.623c-23.825,22.06-64.416,144.716,0,217.074c26.056,29.268,55.111,34.565,81.418,29.391
		c19.335,41.479,50.038,58.144,79.967,58.144c29.929,0,60.632-16.665,79.967-58.144c26.307,5.174,55.362-0.123,81.418-29.391
		C481.809,326.697,441.218,204.041,417.392,181.981z"/>
	<g>
		<path style="fill:#3A4351;" d="M117.443,260.359c25.625-0.001,50.722-5.095,74.777-15.013
			c-13.193-11.752-22.776-26.523-28.768-41.304v-22.06H94.623c-10.154,9.402-23.348,37.08-30.166,71.343
			C80.533,257.604,98.304,260.359,117.443,260.359z"/>
		<path style="fill:#3A4351;" d="M319.794,245.346c24.056,9.92,49.156,15.014,74.781,15.012c19.139-0.001,36.908-2.756,52.982-7.035
			c-6.818-34.263-20.012-61.941-30.165-71.342h-68.828v22.06C342.572,218.823,332.988,233.595,319.794,245.346z"/>
	</g>
	<path style="fill:#4E5660;" d="M242.059,45.801c8.102,6.759,19.795,6.759,27.897,0c13.549-11.303,30.502-18.628,48.982-20.086
		c27.074-2.135,51.824,8.01,69.271,25.457c28.139,28.14,36.114,99.195,102.657,116.889c15.589,4.145,18.613,25.014,4.922,33.544
		c-60.107,37.449-154.108,54.604-239.78-35.294c-85.672,89.897-179.673,72.743-239.781,35.294
		c-13.691-8.53-10.666-29.399,4.923-33.544c66.543-17.695,74.517-88.75,102.657-116.889c17.447-17.447,42.196-27.592,69.27-25.457
		C211.557,27.173,228.51,34.498,242.059,45.801z"/>
	<path style="fill:#3A4351;" d="M139.548,38.673c-5.718,3.562-11.002,7.758-15.742,12.499
		c-28.14,28.14-36.114,99.195-102.657,116.889c-15.589,4.145-18.613,25.014-4.923,33.544
		c49.653,30.936,122.434,48.014,194.544,2.347C133.762,193.718,117.77,78.163,139.548,38.673z"/>
	<g>
		<g>
			<ellipse style="fill:#EDA1AB;" cx="177.631" cy="121.737" rx="28.919" ry="23.03"/>
			<ellipse style="fill:#EDA1AB;" cx="334.384" cy="121.737" rx="28.919" ry="23.03"/>
		</g>
		<path style="fill:#FFFFFF;" d="M208.25,104.177c-4.142,0-7.5-3.358-7.5-7.5c0-3.455-2.811-6.265-6.265-6.265
			s-6.265,2.811-6.265,6.265c0,4.142-3.358,7.5-7.5,7.5c-4.142,0-7.5-3.358-7.5-7.5c0-11.725,9.54-21.265,21.265-21.265
			c11.726,0,21.265,9.54,21.265,21.265C215.75,100.819,212.393,104.177,208.25,104.177z"/>
		<path style="fill:#FFFFFF;" d="M331.295,104.177c-4.142,0-7.5-3.358-7.5-7.5c0-3.455-2.81-6.265-6.265-6.265
			c-3.455,0-6.265,2.811-6.265,6.265c0,4.142-3.358,7.5-7.5,7.5c-4.142,0-7.5-3.358-7.5-7.5c0-11.725,9.54-21.265,21.265-21.265
			c11.726,0,21.265,9.54,21.265,21.265C338.795,100.819,335.437,104.177,331.295,104.177z"/>
		<path style="fill:#FFFFFF;" d="M256.008,126.917c-7.764,0-15.147-3.362-20.256-9.224c-2.721-3.123-2.396-7.86,0.727-10.582
			c3.124-2.721,7.859-2.396,10.582,0.727c2.259,2.593,5.521,4.08,8.947,4.08c3.426,0,6.687-1.487,8.947-4.08
			c2.721-3.123,7.458-3.447,10.582-0.727c3.123,2.722,3.448,7.459,0.727,10.582C271.154,123.555,263.771,126.917,256.008,126.917z"
			/>
	</g>
	<path d="M492.793,160.813c-41.422-11.015-58.666-44.892-73.88-74.781c-1.832-3.6-3.563-6.999-5.341-10.379
		c-1.929-3.666-6.465-5.075-10.129-3.146c-3.666,1.929-5.074,6.464-3.146,10.129c17.616,33.483,35.801,78.623,88.641,92.673
		c9.194,2.445,11.085,14.822,2.884,19.931c-31.958,19.911-68.618,31.01-105.931,28.985c-49.445-2.687-90.809-27.782-124.455-63.087
		c-2.948-3.094-7.9-3.105-10.858,0c-33.636,35.295-75.007,60.4-124.455,63.087c-37.016,2.012-73.703-8.906-105.93-28.984
		c-8.129-5.065-6.398-17.463,2.884-19.931c70.041-18.624,79.554-92.354,106.033-118.834c28.562-28.564,75.357-32.266,108.145-4.916
		c10.866,9.065,26.64,9.065,37.505,0c30.999-25.858,76.698-24.97,106.632,3.441c3.004,2.851,7.751,2.729,10.603-0.277
		c2.852-3.004,2.728-7.751-0.277-10.603c-33.885-32.161-88.234-36.055-126.567-4.08c-5.299,4.42-12.989,4.42-18.288,0
		c-38.893-32.443-94.45-28.086-128.36,5.828c-29.528,29.528-36.533,98.259-99.281,114.944c-21.91,5.826-26.258,35.135-6.961,47.158
		c12.948,8.067,29.894,16.774,49.948,22.986c-15.591,53.395-16.269,124.693,26.811,173.084c6.245,7.015,12.934,13.021,19.884,17.851
		c3.408,2.369,8.08,1.517,10.439-1.878c2.364-3.401,1.523-8.075-1.877-10.439c-5.981-4.157-11.782-9.375-17.242-15.508
		C61.123,350.145,62.157,284.32,76.7,234.848c31.446,7.148,63.211,5.989,93.187-3.432c13.328,18.915,40.2,45.424,86.12,45.424
		c45.921,0,72.792-26.509,86.12-45.424c29.881,9.391,61.643,10.604,93.188,3.433c14.542,49.472,15.577,115.296-23.525,159.219
		c-20.935,23.517-45.955,32.605-74.369,27.019c-3.381-0.669-6.788,1.063-8.245,4.19c-21.825,46.821-55.21,53.813-73.169,53.813
		c-17.959,0-51.344-6.991-73.169-53.813c-1.459-3.127-4.861-4.861-8.246-4.19c-9.242,1.818-18.227,2.095-26.707,0.821
		c-4.092-0.615-7.915,2.207-8.531,6.303c-0.615,4.096,2.207,7.915,6.303,8.531c8.4,1.261,17.157,1.269,26.103,0.025
		c17.261,33.705,46.241,57.323,84.247,57.323c37.947,0,66.951-23.55,84.248-57.325c31.263,4.32,59.768-6.919,82.738-32.723
		c43.08-48.391,42.402-119.687,26.813-173.082c20.055-6.212,37-14.921,49.948-22.988
		C519.069,195.936,514.68,166.634,492.793,160.813z M256.008,261.84c-36.691,0-59.252-19.872-71.433-35.768
		c25.155-10.378,49.038-26.75,71.433-49.037c22.395,22.286,46.277,38.658,71.432,49.037
		C315.26,241.968,292.699,261.84,256.008,261.84z M156.723,368.649c-2.929,2.929-2.929,7.678,0,10.606
		c11.576,11.577,26.29,16.37,44.328,12.336c4.042-0.904,6.586-4.914,5.682-8.957c-0.905-4.042-4.914-6.586-8.957-5.682
		c-16.219,3.628-25.145-3.001-30.447-8.303C164.401,365.721,159.652,365.721,156.723,368.649z M182.549,316.751
		c-18.819-4.733-30.564-24.532-31.047-40.938c-0.122-4.14-3.556-7.416-7.717-7.276c-4.14,0.122-7.398,3.577-7.276,7.717
		c0.638,21.677,15.708,48.335,42.382,55.044c4.035,1.013,8.096-1.442,9.103-5.444C189.004,321.837,186.566,317.762,182.549,316.751z
		 M353.657,160.879c-2.607,3.219-2.111,7.942,1.108,10.548c20.11,16.287,45.924,25,71.064,20.117
		c4.066-0.789,6.723-4.726,5.933-8.791c-0.789-4.066-4.727-6.726-8.792-5.933c-19.333,3.752-40.753-2.461-58.766-17.049
		C360.985,157.164,356.263,157.66,353.657,160.879z M147.81,159.771c-18.013,14.588-39.431,20.801-58.766,17.049
		c-4.063-0.79-8.002,1.867-8.791,5.933c-0.789,4.066,1.867,8.002,5.933,8.791c25.181,4.889,50.989-3.858,71.064-20.117
		c3.219-2.606,3.715-7.33,1.108-10.548C155.751,157.66,151.028,157.164,147.81,159.771z M314.239,376.953
		c-4.039-0.902-8.052,1.64-8.957,5.682c-0.904,4.043,1.64,8.052,5.682,8.957c17.328,3.874,32.247-0.254,44.328-12.336
		c2.929-2.929,2.929-7.678,0-10.606c-2.929-2.929-7.678-2.929-10.607,0C339.383,373.952,330.457,380.583,314.239,376.953z
		 M333.125,331.298c26.674-6.708,41.744-33.367,42.382-55.044c0.122-4.141-3.136-7.596-7.276-7.717
		c-4.177-0.131-7.595,3.136-7.717,7.276c-0.483,16.407-12.228,36.205-31.047,40.938c-4.017,1.01-6.455,5.086-5.444,9.103
		C325.029,329.857,329.092,332.311,333.125,331.298z"/>
</g>
<g>
</g>
<g>
</g>
<g>
</g>
<g>
</g>
<g>
</g>
<g>
</g>
<g>
</g>
<g>
</g>
<g>
</g>
<g>
</g>
<g>
</g>
<g>
</g>
<g>
</g>
<g>
</g>
<g>
</g>
</svg>
